<svg width="52" height="42" viewBox="0 0 52 42" fill="none" xmlns="http://www.w3.org/2000/svg">
<path d="M9.867 37.857C9.399 38.0563 8.749 38.156 7.917 38.156C7.085 38.156 6.46967 37.9826 6.071 37.636C5.681 37.2806 5.486 36.726 5.486 35.972C5.486 35.634 5.538 35.166 5.642 34.568C5.85867 33.3113 6.23133 32.4013 6.76 31.838C7.29733 31.2746 8.151 30.993 9.321 30.993C10.1617 30.993 10.738 31.0883 11.05 31.279L10.387 33.086C9.95367 32.9646 9.55933 32.904 9.204 32.904C8.84867 32.904 8.59733 32.9343 8.45 32.995C8.31133 33.0556 8.22467 33.1726 8.19 33.346L7.683 36.128C7.865 36.1713 8.177 36.193 8.619 36.193C9.06967 36.193 9.555 36.0976 10.075 35.907L9.867 37.857ZM5.187 34.867C5.15233 35.1356 5.13067 35.3176 5.122 35.413L0 34.867H5.187ZM5.434 33.619L5.317 34.165L0.234 33.619H5.434ZM5.109 36.115C5.109 36.2536 5.12633 36.4356 5.161 36.661L0.0520001 36.115H5.109ZM5.889 32.371C5.785 32.5963 5.71133 32.7696 5.668 32.891L0.754 32.371H5.889ZM5.382 37.376C5.486 37.584 5.59867 37.7443 5.72 37.857L1.183 37.376H5.382ZM7.02 31.123C6.812 31.2443 6.63433 31.3873 6.487 31.552L2.496 31.123H7.02Z" fill="white"/>
<path d="M17.5385 30.993C18.4745 30.993 19.1419 31.175 19.5405 31.539C19.9392 31.8943 20.1385 32.4533 20.1385 33.216C20.1385 33.5886 20.0909 34.0393 19.9955 34.568C19.7789 35.816 19.3975 36.726 18.8515 37.298C18.3055 37.87 17.4475 38.156 16.2775 38.156C15.3589 38.156 14.7045 37.9783 14.3145 37.623C13.9245 37.259 13.7295 36.7 13.7295 35.946C13.7295 35.556 13.7772 35.0966 13.8725 34.568C14.0892 33.32 14.4662 32.4143 15.0035 31.851C15.5409 31.279 16.3859 30.993 17.5385 30.993ZM16.6545 36.18C16.9059 36.18 17.0922 36.1496 17.2135 36.089C17.3435 36.0283 17.4302 35.894 17.4735 35.686L17.9675 32.969H17.1745C16.9319 32.969 16.7412 32.9993 16.6025 33.06C16.4725 33.1206 16.3945 33.2506 16.3685 33.45L15.8875 36.18H16.6545ZM13.4175 34.867C13.3829 35.1356 13.3612 35.3176 13.3525 35.413L8.23052 34.867H13.4175ZM13.6645 33.619L13.5475 34.165L8.46452 33.619H13.6645ZM13.3395 36.115C13.3395 36.2536 13.3569 36.4356 13.3915 36.661L8.28252 36.115H13.3395ZM14.1195 32.371C14.0155 32.5963 13.9419 32.7696 13.8985 32.891L8.98452 32.371H14.1195ZM13.6125 37.376C13.7165 37.584 13.8292 37.7443 13.9505 37.857L9.41352 37.376H13.6125ZM15.2505 31.123C15.0425 31.2443 14.8649 31.3873 14.7175 31.552L10.7265 31.123H15.2505Z" fill="white"/>
<path d="M27.5588 31.123C28.5034 31.123 29.1794 31.292 29.5868 31.63C29.9941 31.968 30.1978 32.5096 30.1978 33.255C30.1978 33.6103 30.1501 34.048 30.0548 34.568C29.8381 35.7986 29.4611 36.6783 28.9238 37.207C28.3951 37.7356 27.5371 38 26.3498 38H23.4378L24.6338 31.123H27.5588ZM27.2468 33.021H26.4928L25.9468 36.141H26.7008C26.9521 36.141 27.1428 36.1106 27.2728 36.05C27.4114 35.9806 27.4981 35.8463 27.5328 35.647L27.9098 33.502C27.9184 33.4673 27.9228 33.398 27.9228 33.294C27.9228 33.112 27.6974 33.021 27.2468 33.021ZM23.0088 37.961L17.4968 37.376H23.1128L23.0088 37.961ZM23.4508 35.452L17.9388 34.867H23.5548L23.4508 35.452ZM23.6718 34.204L18.1598 33.619H23.7758L23.6718 34.204ZM23.8928 32.956L18.3808 32.371H23.9968L23.8928 32.956ZM24.1138 31.708L18.6018 31.123H24.2048L24.1138 31.708ZM23.2298 36.7L17.7178 36.115H23.3338L23.2298 36.7Z" fill="white"/>
<path d="M38.1329 35.205H36.1959L36.0399 36.089H38.4449L38.1069 38H33.5179L34.7139 31.123H39.2899L38.6789 33.073H36.5599L36.4039 33.957H38.3539L38.1329 35.205ZM33.0889 37.961L27.5769 37.376H33.1929L33.0889 37.961ZM33.5309 35.452L28.0189 34.867H33.6349L33.5309 35.452ZM33.7519 34.204L28.2399 33.619H33.8559L33.7519 34.204ZM33.9729 32.956L28.4609 32.371H34.0769L33.9729 32.956ZM34.1939 31.708L28.6819 31.123H34.2849L34.1939 31.708ZM33.3099 36.7L27.7979 36.115H33.4139L33.3099 36.7Z" fill="white"/>
<path d="M36.3031 37.376H41.9191L41.7371 37.961L36.3031 37.376ZM42.9071 32.371C42.8551 32.5096 42.7988 32.7046 42.7381 32.956L37.3041 32.371H42.9071ZM42.5821 34.1V34.204L37.0701 33.619H42.6081C42.5908 33.827 42.5821 33.9873 42.5821 34.1ZM42.1531 36.687L36.7321 36.115H42.3351L42.1531 36.687ZM43.8041 31.123C43.5701 31.2963 43.3924 31.4783 43.2711 31.669L38.2011 31.123H43.8041ZM42.6991 34.867C42.7771 35.0923 42.9028 35.2873 43.0761 35.452L37.5771 34.867H42.6991ZM47.8861 33.164C47.2968 33.0253 46.7941 32.956 46.3781 32.956C45.9621 32.956 45.6544 32.969 45.4551 32.995L45.3901 33.372L46.0401 33.45C47.4354 33.632 48.1331 34.2083 48.1331 35.179C48.1331 35.2916 48.1071 35.504 48.0551 35.816C48.0031 36.1193 47.9164 36.414 47.7951 36.7C47.6738 36.986 47.5178 37.22 47.3271 37.402C47.1451 37.5753 46.9631 37.7183 46.7811 37.831C46.6078 37.935 46.3824 38.0086 46.1051 38.052C45.6718 38.1213 45.0911 38.156 44.3631 38.156C43.6438 38.156 42.9158 38.0563 42.1791 37.857L42.8161 35.933C43.4921 36.1236 44.0814 36.219 44.5841 36.219C45.0954 36.219 45.4551 36.206 45.6631 36.18L45.7281 35.764L44.9091 35.673C44.2071 35.595 43.7088 35.4303 43.4141 35.179C43.1194 34.9276 42.9721 34.568 42.9721 34.1C42.9721 33.9266 42.9938 33.71 43.0371 33.45C43.2104 32.5226 43.5224 31.8813 43.9731 31.526C44.4238 31.1706 45.1084 30.993 46.0271 30.993C46.9544 30.993 47.7821 31.084 48.5101 31.266L47.8861 33.164Z" fill="white"/>
<path d="M21.86 2H29.86V8H21.86V2Z" fill="white"/>
<path d="M21.86 11H29.86V17H21.86V11Z" fill="white"/>
<path d="M13.86 11H19.86V17H17.86C15.6508 17 13.86 15.2091 13.86 13V11Z" fill="white"/>
<path d="M37.86 17H31.86V11H35.86C36.9646 11 37.86 11.8954 37.86 13V17Z" fill="white"/>
<path d="M37.86 9L31.86 9V2L33.86 2C36.0691 2 37.86 3.79086 37.86 6V9Z" fill="white"/>
<path d="M37.86 20C37.86 23.3137 35.1737 26 31.86 26V18H37.86V20Z" fill="white"/>
<path d="M13.86 8C13.86 4.68629 16.5463 2 19.86 2V10H13.86V8Z" fill="white"/>
<path d="M13.86 20C13.86 19.4477 14.3077 19 14.86 19H18.86C19.4123 19 19.86 19.4477 19.86 20V26H17.86C15.6508 26 13.86 24.2091 13.86 22V20Z" fill="white"/>
<path d="M21.86 20H29.86V26H21.86V20Z" fill="white"/>
</svg>
