<svg width="128" height="128" viewBox="0 0 128 128" fill="none" xmlns="http://www.w3.org/2000/svg">
<rect width="128" height="128" fill="white"/>
<path d="M48.6667 18H79.3333V41H48.6667V18Z" fill="black"/>
<path d="M48.6667 52.5H79.3333V75.5H48.6667V52.5Z" fill="black"/>
<path d="M18 52.5H41V75.5H33.3333C24.865 75.5 18 68.635 18 60.1667V52.5Z" fill="black"/>
<path d="M110 75.5H87L87 52.5H102.333C106.568 52.5 110 55.9325 110 60.1667V75.5Z" fill="black"/>
<path d="M110 44.8333L87 44.8333V18L94.6667 18C103.135 18 110 24.865 110 33.3333V44.8333Z" fill="black"/>
<path d="M110 87C110 99.7026 99.7026 110 87 110V79.3333H110V87Z" fill="black"/>
<path d="M18 41C18 28.2974 28.2975 18 41 18V48.6667H18V41Z" fill="black"/>
<path d="M18 87C18 84.8829 19.7162 83.1667 21.8333 83.1667H37.1667C39.2838 83.1667 41 84.8829 41 87V110H33.3333C24.865 110 18 103.135 18 94.6667V87Z" fill="black"/>
<path d="M48.6667 87H79.3333V110H48.6667V87Z" fill="black"/>
</svg>
