<svg width="348" height="128" viewBox="0 0 348 128" fill="none" xmlns="http://www.w3.org/2000/svg">
<path d="M139.528 78.6643C137.463 79.5548 134.596 80 130.925 80C127.255 80 124.541 79.2256 122.782 77.6769C121.061 76.0895 120.201 73.6116 120.201 70.2432C120.201 68.7332 120.431 66.6425 120.889 63.971C121.845 58.3569 123.489 54.2916 125.821 51.775C128.192 49.2583 131.958 48 137.119 48C140.828 48 143.37 48.4259 144.747 49.2777L141.822 57.3503C139.91 56.8082 138.171 56.5372 136.603 56.5372C135.035 56.5372 133.927 56.6727 133.277 56.9437C132.665 57.2148 132.283 57.7375 132.13 58.5118L129.893 70.9401C130.696 71.1337 132.072 71.2305 134.022 71.2305C136.01 71.2305 138.151 70.8046 140.445 69.9528L139.528 78.6643ZM118.882 65.3067C118.729 66.507 118.634 67.32 118.595 67.7459L96 65.3067H118.882ZM119.972 59.7314L119.456 62.1706L97.0323 59.7314H119.972ZM118.538 70.882C118.538 71.5015 118.615 72.3146 118.767 73.3212L96.2294 70.882H118.538ZM121.979 54.1561C121.52 55.1627 121.195 55.9371 121.004 56.4791L99.3262 54.1561H121.979ZM119.742 76.5154C120.201 77.4447 120.698 78.1609 121.234 78.6643L101.219 76.5154H119.742ZM126.968 48.5808C126.051 49.1228 125.267 49.7617 124.617 50.4973L107.011 48.5808H126.968Z" fill="white"/>
<path d="M173.37 48C177.499 48 180.443 48.8131 182.202 50.4392C183.961 52.0266 184.84 54.5239 184.84 57.931C184.84 59.5959 184.63 61.6092 184.209 63.971C183.253 69.5463 181.571 73.6116 179.163 76.167C176.754 78.7223 172.969 80 167.808 80C163.755 80 160.868 79.2063 159.148 77.6189C157.427 75.9928 156.567 73.4955 156.567 70.1271C156.567 68.3848 156.777 66.3327 157.198 63.971C158.154 58.3957 159.817 54.3497 162.187 51.833C164.558 49.2777 168.285 48 173.37 48ZM169.471 71.1724C170.579 71.1724 171.401 71.0369 171.937 70.7659C172.51 70.4949 172.892 69.8948 173.084 68.9655L175.263 56.8276H171.765C170.694 56.8276 169.853 56.9631 169.241 57.2341C168.668 57.5051 168.324 58.0859 168.209 58.9764L166.087 71.1724H169.471ZM155.191 65.3067C155.038 66.507 154.942 67.32 154.904 67.7459L132.309 65.3067H155.191ZM156.28 59.7314L155.764 62.1706L133.341 59.7314H156.28ZM154.847 70.882C154.847 71.5015 154.923 72.3146 155.076 73.3212L132.538 70.882H154.847ZM158.288 54.1561C157.829 55.1627 157.504 55.9371 157.313 56.4791L135.635 54.1561H158.288ZM156.051 76.5154C156.51 77.4447 157.007 78.1609 157.542 78.6643L137.527 76.5154H156.051ZM163.277 48.5808C162.359 49.1228 161.576 49.7617 160.926 50.4973L143.32 48.5808H163.277Z" fill="white"/>
<path d="M217.574 48.5808C221.742 48.5808 224.724 49.3357 226.521 50.8457C228.318 52.3557 229.216 54.7756 229.216 58.1053C229.216 59.6927 229.006 61.6479 228.585 63.971C227.629 69.4689 225.966 73.3987 223.596 75.7605C221.264 78.1222 217.479 79.3031 212.241 79.3031H199.395L204.671 48.5808H217.574ZM216.198 57.0599H212.872L210.463 70.9982H213.789C214.898 70.9982 215.739 70.8627 216.313 70.5917C216.924 70.2819 217.307 69.6818 217.46 68.7913L219.123 59.2087C219.161 59.0538 219.18 58.7441 219.18 58.2795C219.18 57.4664 218.186 57.0599 216.198 57.0599ZM197.502 79.1289L173.186 76.5154H197.961L197.502 79.1289ZM199.452 67.9202L175.136 65.3067H199.911L199.452 67.9202ZM200.427 62.3448L176.111 59.7314H200.886L200.427 62.3448ZM201.402 56.7695L177.086 54.1561H201.861L201.402 56.7695ZM202.377 51.1942L178.061 48.5808H202.778L202.377 51.1942ZM198.477 73.4955L174.161 70.882H198.936L198.477 73.4955Z" fill="white"/>
<path d="M264.221 66.8167H255.676L254.988 70.7659H265.598L264.107 79.3031H243.862L249.139 48.5808H269.325L266.63 57.2922H257.282L256.594 61.2414H265.196L264.221 66.8167ZM241.97 79.1289L217.654 76.5154H242.429L241.97 79.1289ZM243.92 67.9202L219.604 65.3067H244.379L243.92 67.9202ZM244.895 62.3448L220.579 59.7314H245.353L244.895 62.3448ZM245.87 56.7695L221.554 54.1561H246.328L245.87 56.7695ZM246.845 51.1942L222.529 48.5808H247.246L246.845 51.1942ZM242.945 73.4955L218.629 70.882H243.404L242.945 73.4955Z" fill="white"/>
<path d="M256.149 76.5154H280.924L280.121 79.1289L256.149 76.5154ZM285.283 54.1561C285.053 54.7756 284.805 55.6467 284.537 56.7695L260.565 54.1561H285.283ZM283.849 61.8802V62.3448L259.533 59.7314H283.964C283.887 60.6606 283.849 61.3769 283.849 61.8802ZM281.956 73.4374L258.042 70.882H282.759L281.956 73.4374ZM289.24 48.5808C288.207 49.3551 287.424 50.1682 286.888 51.02L264.522 48.5808H289.24ZM284.365 65.3067C284.709 66.3134 285.264 67.1845 286.028 67.9202L261.77 65.3067H284.365ZM307.247 57.6987C304.647 57.0793 302.43 56.7695 300.595 56.7695C298.76 56.7695 297.402 56.8276 296.523 56.9437L296.236 58.628L299.104 58.9764C305.259 59.7895 308.337 62.3642 308.337 66.7006C308.337 67.2039 308.222 68.1525 307.993 69.5463C307.763 70.9014 307.381 72.2178 306.846 73.4955C306.311 74.7732 305.622 75.8185 304.781 76.6316C303.978 77.4059 303.175 78.0448 302.373 78.5481C301.608 79.0127 300.614 79.3418 299.39 79.5354C297.479 79.8451 294.917 80 291.706 80C288.532 80 285.321 79.5548 282.071 78.6643L284.881 70.069C287.863 70.9208 290.463 71.3467 292.681 71.3467C294.936 71.3467 296.523 71.2886 297.441 71.1724L297.727 69.314L294.114 68.9075C291.018 68.559 288.819 67.8234 287.519 66.7006C286.219 65.5778 285.569 63.971 285.569 61.8802C285.569 61.1059 285.665 60.1379 285.856 58.9764C286.621 54.8336 287.997 51.9685 289.985 50.3811C291.973 48.7937 294.994 48 299.046 48C303.137 48 306.788 48.4065 310 49.2196L307.247 57.6987Z" fill="white"/>
<path d="M48 36H67V50.25H48V36Z" fill="white"/>
<path d="M48 57.375H67V71.625H48V57.375Z" fill="white"/>
<path d="M29 57.375H43.25V71.625H38.5C33.2533 71.625 29 67.3717 29 62.125V57.375Z" fill="white"/>
<path d="M86 71.625H71.75V57.375H81.25C83.8734 57.375 86 59.5016 86 62.125V71.625Z" fill="white"/>
<path d="M86 52.625L71.75 52.625V36L76.5 36C81.7467 36 86 40.2533 86 45.5V52.625Z" fill="white"/>
<path d="M86 78.75C86 86.6201 79.6201 93 71.75 93V74H86V78.75Z" fill="white"/>
<path d="M29 50.25C29 42.3799 35.3799 36 43.25 36V55H29V50.25Z" fill="white"/>
<path d="M29 78.75C29 77.4383 30.0633 76.375 31.375 76.375H40.875C42.1867 76.375 43.25 77.4383 43.25 78.75V93H38.5C33.2533 93 29 88.7467 29 83.5V78.75Z" fill="white"/>
<path d="M48 78.75H67V93H48V78.75Z" fill="white"/>
</svg>
